<?xml version="1.0" encoding="utf-8"?>
<!-- Generator: Adobe Illustrator 17.1.0, SVG Export Plug-In . SVG Version: 6.00 Build 0)  -->
<!DOCTYPE svg PUBLIC "-//W3C//DTD SVG 1.1//EN" "http://www.w3.org/Graphics/SVG/1.1/DTD/svg11.dtd">
<svg version="1.1" id="Шар_1" xmlns="http://www.w3.org/2000/svg" xmlns:xlink="http://www.w3.org/1999/xlink" x="0px" y="0px"
	 viewBox="175.8 101.6 540 197" enable-background="new 175.8 101.6 540 197" xml:space="preserve">
<path fill="#E5E5E5" d="M344.4,269.2c17.6-17.8,28.4-42.2,28.4-69.1c0-27.2-11.1-51.8-28.9-69.7l8.6-8.6c1.9-1.9,1.9-5,0-6.9
	c-1.9-1.9-5-1.9-6.9,0l-9,9c-17-14-38.7-22.3-62.4-22.3c-23.8,0-45.7,8.5-62.7,22.6l-9.3-9.3c-1.9-1.9-5-1.9-6.9,0
	c-1.9,1.9-1.9,5,0,6.9l9,9c-17.7,17.8-28.6,42.3-28.6,69.3c0,26.8,10.7,51.1,28.1,68.8l-8.5,8.5c-1.9,1.9-1.9,5,0,6.9
	c1.9,1.9,5,1.9,6.9,0l8.7-8.7c17.1,14.4,39.2,23.1,63.3,23.1c23.9,0,45.9-8.6,62.9-22.8l8.4,8.4c1.9,1.9,5,1.9,6.9,0
	c1.9-1.9,1.9-5,0-6.9L344.4,269.2z M363.1,200.1c0,24.2-9.8,46.3-25.6,62.3l-15.1-15.1c11.9-12.2,19.3-28.9,19.3-47.2
	c0-18.6-7.6-35.5-19.8-47.7l15.1-15.1C353.1,153.3,363.1,175.6,363.1,200.1z M314.4,239.2c-1.9-1.9-5-1.9-6.9,0
	c-1.9,1.9-1.9,5,0,6.9l0.7,0.7c-9.5,7-21.3,11.1-34,11.1c-12.8,0-24.7-4.2-34.3-11.3l0.5-0.5c1.9-1.9,1.9-5,0-6.9
	c-1.9-1.9-5-1.9-6.9,0l-0.9,0.9c-10-10.4-16.2-24.5-16.2-40.1c0-15.8,6.4-30.1,16.7-40.6l0.4,0.4c1.9,1.9,5,1.9,6.9,0
	c1.9-1.9,1.9-4.9,0.1-6.8c9.5-6.9,21.2-10.9,33.7-10.9c12.4,0,24,3.9,33.4,10.6l-0.2,0.2c-1.9,1.9-1.9,5,0,6.9c1.9,1.9,5,1.9,6.9,0
	l0.7-0.7c10.5,10.5,17,24.9,17,40.9c0,15.7-6.3,30-16.5,40.4L314.4,239.2z M274.3,111.3c21,0,40.3,7.3,55.5,19.5L314.6,146
	c-11.3-8.4-25.2-13.4-40.3-13.4c-15.3,0-29.3,5.1-40.7,13.7l-15.2-15.2C233.7,118.7,253.1,111.3,274.3,111.3z M185.5,200.1
	c0-24.3,9.9-46.4,25.8-62.5l15.1,15.1c-12.1,12.2-19.5,29-19.5,47.4c0,18.2,7.3,34.8,19,46.9l-15.1,15.1
	C195.1,246,185.5,224.2,185.5,200.1z M274.3,288.9c-21.4,0-41-7.6-56.4-20.3l15.2-15.2c11.4,8.8,25.7,14.1,41.2,14.1
	c15.4,0,29.5-5.2,40.9-13.8l15.2,15.2C315,281.4,295.5,288.9,274.3,288.9z"/>
<polygon fill="#5DCDB5" points="715.8,240.8 495,260.5 274.3,240.8 274.3,159.4 495,139.7 715.8,159.4 "/>
<g>
	<path fill="#FFFFFF" d="M314.7,179.1l10.8,40h-6.1l-1.7-6.3h-9.5l-1.7,6.3h-6.1l10.8-40H314.7z M309.8,206.4h6.1l-3-12.8
		L309.8,206.4z"/>
	<path fill="#FFFFFF" d="M353.9,219c-1.7,0-3.2-0.2-4.5-0.6c-1.3-0.4-2.7-1.2-4.2-2.3v-7.4c0.9,1,1.6,1.6,2.1,2
		c0.5,0.3,1.1,0.7,1.8,1.1c0.7,0.4,1.5,0.7,2.4,1c0.9,0.3,1.7,0.4,2.6,0.4c1.8,0,3.2-0.6,4.4-1.8c1.1-1.2,1.7-2.7,1.7-4.4
		c0-1.4-0.5-2.5-1.4-3.3c-1-0.9-2.5-1.8-4.7-2.9c-1.3-0.7-2.4-1.3-3.3-1.8c-0.9-0.6-1.8-1.2-2.6-2.1c-0.8-0.8-1.5-1.8-2-2.9
		c-0.5-1.1-0.8-2.5-0.8-4c0.1-1.5,0.4-2.9,1.1-4.2c0.7-1.3,1.6-2.4,2.7-3.4c1.1-1,2.4-1.7,3.8-2.3c1.4-0.5,3-0.8,4.5-0.8
		c1.2,0,2.3,0.2,3.3,0.5c1,0.3,2.1,0.8,3.4,1.6v6.2c-0.8-0.5-1.3-0.8-1.5-0.9c-0.3-0.1-0.7-0.3-1.2-0.6c-0.5-0.3-1.1-0.5-1.8-0.7
		c-0.7-0.2-1.4-0.3-2.1-0.3c-1.7,0-3.1,0.5-4.3,1.6c-1.2,1-1.7,2.3-1.7,3.6c0,1.3,0.5,2.3,1.5,3.1c0.9,0.8,2.5,1.6,4.5,2.6
		c1.4,0.7,2.6,1.3,3.5,1.8c0.9,0.5,1.8,1.2,2.7,2c0.9,0.8,1.6,1.9,2.1,3.1c0.5,1.3,0.8,2.7,0.9,4.4c0,1.6-0.3,3.1-1,4.5
		c-0.7,1.4-1.6,2.7-2.8,3.8c-1.2,1.1-2.5,1.9-4.1,2.6C357.2,218.7,355.6,219,353.9,219z"/>
	<path fill="#FFFFFF" d="M376.5,213.6l-2.1,5.5H368l15.9-41.4l15.9,41.4h-6.4l-2.1-5.5H376.5z M378.8,207.6h10.1l-5.1-13.2
		L378.8,207.6z"/>
	<path fill="#FFFFFF" d="M403.5,179.5h6V213h13.7v6h-19.7V179.5z"/>
	<path fill="#FFFFFF" d="M417.8,179.3h25.7v6.2h-9.9v33.2h-6v-33.2h-9.9V179.3z"/>
	<path fill="#FFFFFF" d="M489.1,200.9c-0.1,0.5-0.3,1-0.4,1.4c-0.1,0.4-0.3,0.8-0.4,1.2c-0.2,0.4-0.3,0.8-0.5,1.3
		c-0.2,0.5-0.4,1-0.7,1.7c-0.3,0.6-0.5,1.2-0.7,1.5c-0.2,0.4-0.3,0.7-0.5,0.9c-0.1,0.2-0.3,0.4-0.4,0.6c-0.1,0.2-0.3,0.4-0.5,0.7
		l6,8.6h-7.2l-2.7-3.9c-2.8,2.9-5.7,4.3-8.8,4.3c-1.3,0-2.5-0.2-3.6-0.7c-1.1-0.5-2.1-1.1-2.9-1.9c-0.8-0.8-1.5-1.8-1.9-2.9
		c-0.5-1.1-0.7-2.3-0.7-3.6c0-0.9,0.1-1.9,0.4-2.7c0.2-0.9,0.7-1.7,1.2-2.6c0.6-0.9,1.3-1.7,2.2-2.7c0.9-0.9,2-1.9,3.3-3
		c-2.3-3-3.4-5.8-3.4-8.5c0-1,0.2-2,0.6-2.9c0.4-0.9,1-1.7,1.7-2.3c0.7-0.7,1.6-1.2,2.6-1.6c1-0.4,2.1-0.6,3.2-0.6
		c2.5,0,4.4,0.7,5.9,2c1.5,1.3,2.2,3.1,2.2,5.3c0,1.2-0.2,2.3-0.7,3.4c-0.5,1-1.3,2.2-2.4,3.5c-0.6,0.6-1,1.1-1.3,1.4
		c-0.3,0.3-0.7,0.7-1.2,1.1l3.8,5.4c0.7-1,1.3-2.4,1.9-4.2H489.1z M470,206.7c-0.6,1-0.9,2-0.9,3c0,1.1,0.4,2.1,1.1,2.9
		c0.8,0.8,1.7,1.2,2.8,1.2c1.6,0,3.4-1.1,5.2-3.4l-4.8-7.2C471.8,204.6,470.6,205.7,470,206.7z M475,195.2l1.2-1.3
		c1-1,1.4-2.1,1.4-3.4c0-0.7-0.2-1.3-0.7-1.8c-0.5-0.5-1.1-0.7-1.8-0.7c-0.8,0-1.4,0.2-1.9,0.7c-0.5,0.5-0.7,1.1-0.7,1.9
		c0,0.6,0.2,1.2,0.5,1.9c0.3,0.7,0.9,1.6,1.8,2.9L475,195.2z"/>
	<path fill="#FFFFFF" d="M510.8,219v-39.4h9.1c2.5,0,4.7,0.9,6.4,2.7c1.8,1.8,2.7,3.9,2.7,6.4c0,2.5-0.8,4.6-2.5,6.3
		c1.8,0.6,3.5,1.6,5,3.1c2.4,2.4,3.6,5.3,3.6,8.7c0,3.4-1.2,6.3-3.6,8.7c-2.4,2.4-5.3,3.6-8.7,3.6H510.8z M516.8,192.2h3.1
		c0.9,0,1.6-0.3,2.2-1c0.6-0.7,0.9-1.5,0.9-2.4c0-0.9-0.3-1.7-0.9-2.4c-0.6-0.7-1.3-1-2.2-1h-3.1V192.2z M516.8,199.6v9v4.3h5.9
		c1.7,0,3.2-0.7,4.4-2c1.2-1.3,1.8-2.9,1.8-4.7c0-1.8-0.6-3.4-1.8-4.7c-1.2-1.3-2.7-2-4.4-2H516.8z"/>
	<path fill="#FFFFFF" d="M544.6,213.6l-2.1,5.5h-6.4l15.9-41.4l15.9,41.4h-6.4l-2.1-5.5H544.6z M546.9,207.6h10.1l-5.1-13.2
		L546.9,207.6z"/>
	<path fill="#FFFFFF" d="M562.2,179.3H588v6.2h-9.9v33.2h-6v-33.2h-9.9V179.3z"/>
	<path fill="#FFFFFF" d="M591.7,179.3h25.7v6.2h-9.9v33.2h-6v-33.2h-9.9V179.3z"/>
	<path fill="#FFFFFF" d="M621.1,179.5h18.3v6h-12.2v14.6h12.2v6h-12.2v6.9h12.2v6h-18.3V179.5z"/>
	<path fill="#FFFFFF" d="M659.1,207.2l5.6,11.8h-6.4l-4.3-9.1c-1.4,0.4-2.9,0.6-4.6,0.6H649v8.4h-6v-39.7h6.5c4.3,0,8,1.5,11.1,4.6
		c3.1,3.1,4.6,6.7,4.6,11c0,4.3-1.5,8-4.6,11.1C660.1,206.4,659.6,206.8,659.1,207.2z M649,204.6h0.5c2.7,0,5-0.9,6.9-2.8
		c1.9-1.9,2.8-4.2,2.8-6.9c0-2.7-0.9-5-2.8-6.9c-1.9-1.9-4.2-2.8-6.9-2.8H649V204.6z"/>
	<path fill="#FFFFFF" d="M665,179.3h6.4l7.4,22.4l7.4-22.4h6.4l-10.3,29.5V219h-6.9v-10.2L665,179.3z"/>
</g>
<g>
	<path fill="#FFFFFF" d="M495,249.4l-0.2,0L282,234v-67.8L495,150.7l0.2,0l212.9,15.5V234L495,249.4z M287,229.3L495,244.4
		l208.1-15.1v-58.5L495,155.7L287,170.8V229.3z"/>
</g>
</svg>
